# xmcd CD database file
#
# Track frame offsets:
#	182
#	18350
#	40075
#	74992
#	99565
#	118200
#	136682
#	152392
#	167897
#	193850
#	222102
#	245315
#	268940
#	288487
#	315105
#
# Disc length: 4501 seconds
#
# Revision: 2
# Processed by: cddbd v1.5.2PL0 Copyright (c) Steve Scherf et al.
# Submitted via: CDex 1.51
#
DISCID=d711930f
DTITLE=Art Pepper - Vol. 241 - Straight Life
DYEAR=1970
DGENRE=Jazz
TTITLE0=Straight Life
TTITLE1=Jazz Me Blues
TTITLE2=Tin Tin Deo
TTITLE3=You'D Be So Nice To Come Home To
TTITLE4=Violets For Your Furs
TTITLE5=Younger Than Springtime
TTITLE6=Lazy Afternoon
TTITLE7=Diablo'S Dance
TTITLE8=Yardbird Suite
TTITLE9=Too Close For Comfort
TTITLE10=You'Re Driving Me Crazy
TTITLE11=Star Eyes
TTITLE12=Birks Works
TTITLE13=Imagination
TTITLE14=Tenor Blooz
EXTD=YEAR: 1970
EXTT0=
EXTT1=
EXTT2=
EXTT3=
EXTT4=
EXTT5=
EXTT6=
EXTT7=
EXTT8=
EXTT9=
EXTT10=
EXTT11=
EXTT12=
EXTT13=
EXTT14=
PLAYORDER=
